<svg xmlns="http://www.w3.org/2000/svg" viewBox="0 0 512 512">
  <!-- Fondo rojo -->
  <rect width="512" height="512" fill="#C8102E" rx="80"/>

  <!-- Ticket/Pase estilizado -->
  <g transform="translate(256, 256)">
    <!-- Ticket principal -->
    <rect x="-160" y="-100" width="320" height="200" fill="white" rx="12"/>

    <!-- Perforaciones laterales del ticket -->
    <circle cx="-160" cy="-60" r="16" fill="#C8102E"/>
    <circle cx="-160" cy="0" r="16" fill="#C8102E"/>
    <circle cx="-160" cy="60" r="16" fill="#C8102E"/>
    <circle cx="160" cy="-60" r="16" fill="#C8102E"/>
    <circle cx="160" cy="0" r="16" fill="#C8102E"/>
    <circle cx="160" cy="60" r="16" fill="#C8102E"/>

    <!-- Líneas decorativas del ticket -->
    <rect x="-140" y="-70" width="100" height="12" fill="#C8102E" rx="6"/>
    <rect x="-140" y="-40" width="160" height="8" fill="#E8E8E8" rx="4"/>
    <rect x="-140" y="-20" width="200" height="8" fill="#E8E8E8" rx="4"/>
    <rect x="-140" y="0" width="140" height="8" fill="#E8E8E8" rx="4"/>

    <!-- Código de barras simplificado -->
    <rect x="-80" y="30" width="8" height="50" fill="#C8102E"/>
    <rect x="-60" y="30" width="12" height="50" fill="#C8102E"/>
    <rect x="-40" y="30" width="6" height="50" fill="#C8102E"/>
    <rect x="-28" y="30" width="10" height="50" fill="#C8102E"/>
    <rect x="-10" y="30" width="14" height="50" fill="#C8102E"/>
    <rect x="12" y="30" width="8" height="50" fill="#C8102E"/>
    <rect x="28" y="30" width="6" height="50" fill="#C8102E"/>
    <rect x="40" y="30" width="12" height="50" fill="#C8102E"/>
    <rect x="60" y="30" width="10" height="50" fill="#C8102E"/>
  </g>
</svg>
